# WaveFront *.obj file (generated by Autodesk ATF)

mtllib truncated cone v1.mtl

g 본체1

v -2.707749 -0.000000 13.000000
v -2.634762 0.624450 13.000000
v -2.419733 1.215236 13.000000
v -2.074256 1.740508 13.000000
v -1.616956 2.171948 13.000000
v -1.072485 2.486299 13.000000
v -0.470196 2.666612 13.000000
v 0.157442 2.703168 13.000000
v 0.776591 2.593995 13.000000
v 1.353875 2.344980 13.000000
v 1.858170 1.969545 13.000000
v 2.262291 1.487933 13.000000
v 2.544452 0.926105 13.000000
v 2.689440 0.314351 13.000000
v 2.689440 -0.314351 13.000000
v 2.544452 -0.926105 13.000000
v 2.262291 -1.487933 13.000000
v 1.858170 -1.969545 13.000000
v 1.353875 -2.344980 13.000000
v 0.776591 -2.593995 13.000000
v 0.157442 -2.703168 13.000000
v -0.470196 -2.666612 13.000000
v -1.072485 -2.486299 13.000000
v -1.616956 -2.171948 13.000000
v -2.074256 -1.740508 13.000000
v -2.419733 -1.215236 13.000000
v -2.634762 -0.624450 13.000000
v -5.000000 -0.000000 0.000000
v -4.924039 -0.868241 0.000000
v -4.698463 -1.710101 0.000000
v -4.330127 -2.500000 0.000000
v -3.830222 -3.213938 0.000000
v -3.213938 -3.830222 0.000000
v -2.500000 -4.330127 0.000000
v -1.710101 -4.698463 0.000000
v -0.868241 -4.924039 0.000000
v 0.000000 -5.000000 0.000000
v 0.868241 -4.924039 0.000000
v 1.710101 -4.698463 0.000000
v 2.500000 -4.330127 0.000000
v 3.213938 -3.830222 0.000000
v 3.830222 -3.213938 0.000000
v 4.330127 -2.500000 0.000000
v 4.698463 -1.710101 0.000000
v 4.924039 -0.868241 0.000000
v 5.000000 0.000000 0.000000
v 4.924039 0.868241 0.000000
v 4.698463 1.710101 0.000000
v 4.330127 2.500000 0.000000
v 3.830222 3.213938 0.000000
v 3.213938 3.830222 0.000000
v 2.500000 4.330127 0.000000
v 1.710101 4.698463 0.000000
v 0.868241 4.924039 0.000000
v 0.000000 5.000000 0.000000
v -0.868241 4.924039 0.000000
v -1.710101 4.698463 0.000000
v -2.500000 4.330127 0.000000
v -3.213938 3.830222 0.000000
v -3.830222 3.213938 0.000000
v -4.330127 2.500000 0.000000
v -4.698463 1.710101 0.000000
v -4.924039 0.868241 0.000000
v -3.853875 -0.000000 6.500000
v -3.795326 0.669218 6.500000
v -3.621458 1.318103 6.500000
v -3.337553 1.926937 6.500000
v -2.477223 2.952239 6.500000
v -2.952239 2.477223 6.500000
v -1.926937 3.337553 6.500000
v -1.318103 3.621458 6.500000
v 0.000000 3.853875 6.500000
v -0.669218 3.795326 6.500000
v 0.669218 3.795326 6.500000
v 1.318103 3.621458 6.500000
v 2.477223 2.952239 6.500000
v 1.926937 3.337553 6.500000
v 2.952239 2.477223 6.500000
v 3.337553 1.926937 6.500000
v 3.795326 0.669218 6.500000
v 3.621458 1.318103 6.500000
v 3.853875 0.000000 6.500000
v 3.795326 -0.669218 6.500000
v 3.337553 -1.926937 6.500000
v 3.621458 -1.318103 6.500000
v 2.952239 -2.477223 6.500000
v 2.477223 -2.952239 6.500000
v 1.318103 -3.621458 6.500000
v 1.926937 -3.337553 6.500000
v 0.669218 -3.795326 6.500000
v 0.000000 -3.853875 6.500000
v -1.318103 -3.621458 6.500000
v -0.669218 -3.795326 6.500000
v -1.926937 -3.337553 6.500000
v -2.477223 -2.952239 6.500000
v -3.337553 -1.926937 6.500000
v -2.952239 -2.477223 6.500000
v -3.621458 -1.318103 6.500000
v -3.795326 -0.669218 6.500000
vt -13.200546 11.210467 0.000000
vt -6.600273 11.434676 0.000000
vt -13.200546 12.107304 0.000000
vt -6.600273 12.107304 0.000000
vt -13.200546 -12.107304 0.000000
vt -6.600273 -12.107304 0.000000
vt -6.600273 -11.434676 0.000000
vt -0.000000 -12.107304 0.000000
vt -0.000000 -11.434676 0.000000
vt -6.600273 10.762048 0.000000
vt -13.200546 10.313630 0.000000
vt -6.600273 10.089420 0.000000
vt -13.200546 9.416792 0.000000
vt -6.600273 9.416792 0.000000
vt -6.600273 8.744164 0.000000
vt -0.000000 8.744164 0.000000
vt -0.000000 8.071536 0.000000
vt -6.600273 8.071536 0.000000
vt -0.000000 7.398908 0.000000
vt -6.600273 7.398908 0.000000
vt -0.000000 6.726280 0.000000
vt -6.600273 6.726280 0.000000
vt -0.000000 6.053652 0.000000
vt -6.600273 6.053652 0.000000
vt -0.000000 5.381024 0.000000
vt -6.600273 5.381024 0.000000
vt -0.000000 4.708396 0.000000
vt -6.600273 4.708396 0.000000
vt 0.000000 4.035768 0.000000
vt -6.600273 4.035768 0.000000
vt -0.000000 3.363140 0.000000
vt -6.600273 3.363140 0.000000
vt -0.000000 2.690512 0.000000
vt -6.600273 2.690512 0.000000
vt -0.000000 2.017884 0.000000
vt -6.600273 2.017884 0.000000
vt -0.000000 1.345256 0.000000
vt -6.600273 1.345256 0.000000
vt -0.000000 0.672628 0.000000
vt -6.600273 0.672628 0.000000
vt -0.000000 0.000000 0.000000
vt -6.600273 0.000000 0.000000
vt -0.000000 -0.672628 0.000000
vt -6.600273 -0.672628 0.000000
vt -0.000000 -1.345256 0.000000
vt -6.600273 -1.345256 0.000000
vt -0.000000 -2.017884 0.000000
vt -6.600273 -2.017884 0.000000
vt -0.000000 -2.690512 0.000000
vt -6.600273 -2.690512 0.000000
vt -0.000000 -3.363140 0.000000
vt -6.600273 -3.363140 0.000000
vt -0.000000 -4.035768 0.000000
vt -6.600273 -4.035768 0.000000
vt -0.000000 -4.708396 0.000000
vt -6.600273 -4.708396 0.000000
vt -0.000000 -5.381024 0.000000
vt -6.600273 -5.381024 0.000000
vt -0.000000 -6.053652 0.000000
vt -6.600273 -6.053652 0.000000
vt -0.000000 -6.726280 0.000000
vt -6.600273 -6.726280 0.000000
vt 0.000000 -7.398908 0.000000
vt -6.600273 -7.398908 0.000000
vt -0.000000 -8.071536 0.000000
vt -6.600273 -8.071536 0.000000
vt -0.000000 -8.744164 0.000000
vt -6.600273 -8.744164 0.000000
vt -0.000000 -9.416792 0.000000
vt -6.600273 -9.416792 0.000000
vt -0.000000 -10.089420 0.000000
vt -6.600273 -10.089420 0.000000
vt -0.000000 -10.762048 0.000000
vt -6.600273 -10.762048 0.000000
vt -13.200546 8.519955 0.000000
vt -13.200546 7.623117 0.000000
vt -13.200546 6.726280 0.000000
vt -13.200546 5.829443 0.000000
vt -13.200546 4.932605 0.000000
vt -13.200546 4.035768 0.000000
vt -13.200546 3.138931 0.000000
vt -13.200546 2.242093 0.000000
vt -13.200546 1.345256 0.000000
vt -13.200546 0.448419 0.000000
vt -13.200546 -0.448419 0.000000
vt -13.200546 -1.345256 0.000000
vt -13.200546 -2.242093 0.000000
vt -13.200546 -3.138931 0.000000
vt -13.200546 -4.035768 0.000000
vt -13.200546 -4.932605 0.000000
vt -13.200546 -5.829443 0.000000
vt -13.200546 -6.726280 0.000000
vt -13.200546 -7.623117 0.000000
vt -13.200546 -8.519955 0.000000
vt -13.200546 -9.416792 0.000000
vt -13.200546 -10.313630 0.000000
vt -13.200546 -11.210467 0.000000
vt -0.000000 9.416792 0.000000
vt 0.000000 10.089420 0.000000
vt -0.000000 10.762048 0.000000
vt -0.000000 11.434676 0.000000
vt -0.000000 12.107304 0.000000
vt -2.707749 -0.000000 0.000000
vt -2.634762 -0.624450 0.000000
vt -2.634762 0.624450 0.000000
vt -2.419733 1.215236 0.000000
vt -2.419733 -1.215236 0.000000
vt -2.074256 1.740508 0.000000
vt -2.074256 -1.740508 0.000000
vt -1.616956 2.171948 0.000000
vt -1.616956 -2.171948 0.000000
vt -1.072485 2.486299 0.000000
vt -0.470196 2.666612 0.000000
vt 0.157442 2.703168 0.000000
vt 0.776591 2.593995 0.000000
vt 1.353875 2.344980 0.000000
vt 1.858170 1.969545 0.000000
vt 2.262291 1.487933 0.000000
vt 2.544452 0.926105 0.000000
vt 2.689440 0.314351 0.000000
vt 2.689440 -0.314351 0.000000
vt 2.544452 -0.926105 0.000000
vt 2.262291 -1.487933 0.000000
vt 1.858170 -1.969545 0.000000
vt -1.072485 -2.486299 0.000000
vt 1.353875 -2.344980 0.000000
vt 0.776591 -2.593995 0.000000
vt -0.470196 -2.666612 0.000000
vt 0.157442 -2.703168 0.000000
vt 4.924039 0.868241 0.000000
vt -4.924039 0.868241 0.000000
vt 5.000000 -0.000000 0.000000
vt -5.000000 0.000000 0.000000
vt 4.924039 -0.868241 0.000000
vt -4.924039 -0.868241 0.000000
vt 4.698463 -1.710101 0.000000
vt -4.698463 -1.710101 0.000000
vt 4.330127 -2.500000 0.000000
vt -4.330127 -2.500000 0.000000
vt 3.830222 -3.213938 0.000000
vt -3.830222 -3.213938 0.000000
vt 3.213938 -3.830222 0.000000
vt -3.213938 -3.830222 0.000000
vt 2.500000 -4.330127 0.000000
vt -2.500000 -4.330127 0.000000
vt 1.710101 -4.698463 0.000000
vt -1.710101 -4.698463 0.000000
vt 0.868241 -4.924039 0.000000
vt -0.868241 -4.924039 0.000000
vt -0.000000 -5.000000 0.000000
vt -4.698463 1.710101 0.000000
vt 4.698463 1.710101 0.000000
vt -4.330127 2.500000 0.000000
vt 4.330127 2.500000 0.000000
vt -3.830222 3.213938 0.000000
vt 3.830222 3.213938 0.000000
vt -3.213938 3.830222 0.000000
vt 3.213938 3.830222 0.000000
vt -2.500000 4.330127 0.000000
vt 2.500000 4.330127 0.000000
vt -1.710101 4.698463 0.000000
vt 1.710101 4.698463 0.000000
vt -0.868241 4.924039 0.000000
vt 0.868241 4.924039 0.000000
vt -0.000000 5.000000 0.000000
vn -0.958262 0.227112 0.173648
vn -0.969846 0.171010 0.173648
vn -0.984808 0.000000 0.173648
vn -0.984808 0.000000 0.173648
vn -0.969846 -0.171010 0.173648
vn -0.984808 -0.000000 0.173648
vn -0.969846 -0.171010 0.173648
vn -0.925417 0.336824 0.173648
vn -0.880056 0.441981 0.173648
vn -0.852869 0.492404 0.173648
vn -0.754407 0.633022 0.173648
vn -0.754407 0.633022 0.173648
vn -0.633022 0.754407 0.173648
vn -0.633022 0.754407 0.173648
vn -0.492404 0.852869 0.173648
vn -0.492404 0.852869 0.173648
vn -0.336824 0.925417 0.173648
vn -0.336824 0.925417 0.173648
vn -0.171010 0.969846 0.173648
vn -0.171010 0.969846 0.173648
vn 0.000000 0.984808 0.173648
vn 0.000000 0.984808 0.173648
vn 0.171010 0.969846 0.173648
vn 0.171010 0.969846 0.173648
vn 0.336824 0.925417 0.173648
vn 0.336824 0.925417 0.173648
vn 0.492404 0.852869 0.173648
vn 0.492404 0.852869 0.173648
vn 0.633022 0.754407 0.173648
vn 0.633022 0.754407 0.173648
vn 0.754407 0.633022 0.173648
vn 0.754407 0.633022 0.173648
vn 0.852869 0.492404 0.173648
vn 0.852869 0.492404 0.173648
vn 0.925417 0.336824 0.173648
vn 0.925417 0.336824 0.173648
vn 0.969846 0.171010 0.173648
vn 0.969846 0.171010 0.173648
vn 0.984808 -0.000000 0.173648
vn 0.984808 -0.000000 0.173648
vn 0.969846 -0.171010 0.173648
vn 0.969846 -0.171010 0.173648
vn 0.925417 -0.336824 0.173648
vn 0.925417 -0.336824 0.173648
vn 0.852869 -0.492404 0.173648
vn 0.852869 -0.492404 0.173648
vn 0.754407 -0.633022 0.173648
vn 0.754407 -0.633022 0.173648
vn 0.633022 -0.754407 0.173648
vn 0.633022 -0.754407 0.173648
vn 0.492404 -0.852869 0.173648
vn 0.492404 -0.852869 0.173648
vn 0.336824 -0.925417 0.173648
vn 0.336824 -0.925417 0.173648
vn 0.171010 -0.969846 0.173648
vn 0.171010 -0.969846 0.173648
vn 0.000000 -0.984808 0.173648
vn 0.000000 -0.984808 0.173648
vn -0.171010 -0.969846 0.173648
vn -0.171010 -0.969846 0.173648
vn -0.336824 -0.925417 0.173648
vn -0.336824 -0.925417 0.173648
vn -0.492404 -0.852869 0.173648
vn -0.492404 -0.852869 0.173648
vn -0.633022 -0.754407 0.173648
vn -0.633022 -0.754407 0.173648
vn -0.754407 -0.633022 0.173648
vn -0.754407 -0.633022 0.173648
vn -0.852869 -0.492404 0.173648
vn -0.852869 -0.492404 0.173648
vn -0.925417 -0.336824 0.173648
vn -0.925417 -0.336824 0.173648
vn -0.588086 0.789937 0.173648
vn -0.390062 0.904266 0.173648
vn -0.171010 0.969846 0.173648
vn 0.057261 0.983142 0.173648
vn 0.282446 0.943435 0.173648
vn 0.492404 0.852869 0.173648
vn 0.675816 0.716323 0.173648
vn 0.822795 0.541161 0.173648
vn 0.925417 0.336824 0.173648
vn 0.978149 0.114329 0.173648
vn 0.978149 -0.114329 0.173648
vn 0.925417 -0.336824 0.173648
vn 0.822795 -0.541161 0.173648
vn 0.675816 -0.716323 0.173648
vn 0.492404 -0.852869 0.173648
vn 0.282446 -0.943435 0.173648
vn 0.057261 -0.983142 0.173648
vn -0.171010 -0.969846 0.173648
vn -0.390062 -0.904266 0.173648
vn -0.588086 -0.789937 0.173648
vn -0.754407 -0.633022 0.173648
vn -0.880056 -0.441981 0.173648
vn -0.958262 -0.227112 0.173648
vn -0.754407 0.633022 0.173648
vn -0.852869 0.492404 0.173648
vn -0.925417 0.336824 0.173648
vn -0.969846 0.171010 0.173648
vn 0.000000 0.000000 1.000000
vn 0.000000 0.000000 1.000000
vn 0.000000 0.000000 1.000000
vn 0.000000 0.000000 1.000000
vn 0.000000 0.000000 1.000000
vn 0.000000 0.000000 1.000000
vn 0.000000 0.000000 1.000000
vn 0.000000 0.000000 1.000000
vn 0.000000 0.000000 1.000000
vn 0.000000 0.000000 1.000000
vn 0.000000 0.000000 1.000000
vn 0.000000 0.000000 1.000000
vn 0.000000 0.000000 1.000000
vn 0.000000 0.000000 1.000000
vn 0.000000 0.000000 1.000000
vn 0.000000 0.000000 1.000000
vn 0.000000 0.000000 1.000000
vn 0.000000 0.000000 1.000000
vn 0.000000 0.000000 1.000000
vn 0.000000 0.000000 1.000000
vn 0.000000 0.000000 1.000000
vn 0.000000 0.000000 1.000000
vn 0.000000 0.000000 1.000000
vn 0.000000 0.000000 1.000000
vn 0.000000 0.000000 1.000000
vn 0.000000 0.000000 1.000000
vn 0.000000 0.000000 1.000000
vn -0.000000 -0.000000 -1.000000
vn -0.000000 -0.000000 -1.000000
vn -0.000000 -0.000000 -1.000000
vn -0.000000 -0.000000 -1.000000
vn -0.000000 -0.000000 -1.000000
vn -0.000000 -0.000000 -1.000000
vn -0.000000 -0.000000 -1.000000
vn -0.000000 -0.000000 -1.000000
vn -0.000000 -0.000000 -1.000000
vn -0.000000 -0.000000 -1.000000
vn -0.000000 -0.000000 -1.000000
vn -0.000000 -0.000000 -1.000000
vn -0.000000 -0.000000 -1.000000
vn -0.000000 -0.000000 -1.000000
vn -0.000000 -0.000000 -1.000000
vn -0.000000 -0.000000 -1.000000
vn -0.000000 -0.000000 -1.000000
vn -0.000000 -0.000000 -1.000000
vn -0.000000 -0.000000 -1.000000
vn -0.000000 -0.000000 -1.000000
vn -0.000000 -0.000000 -1.000000
vn -0.000000 -0.000000 -1.000000
vn -0.000000 -0.000000 -1.000000
vn -0.000000 -0.000000 -1.000000
vn -0.000000 -0.000000 -1.000000
vn -0.000000 -0.000000 -1.000000
vn -0.000000 -0.000000 -1.000000
vn -0.000000 -0.000000 -1.000000
vn -0.000000 -0.000000 -1.000000
vn -0.000000 -0.000000 -1.000000
vn -0.000000 -0.000000 -1.000000
vn -0.000000 -0.000000 -1.000000
vn -0.000000 -0.000000 -1.000000
vn -0.000000 -0.000000 -1.000000
vn -0.000000 -0.000000 -1.000000
vn -0.000000 -0.000000 -1.000000
usemtl 강철_-_새틴
f 2/1/1 65/2/2 1/3/3
f 1/3/3 65/2/2 64/4/4
f 1/5/3 64/6/4 99/7/5
f 99/7/5 64/6/4 28/8/6
f 99/7/5 28/8/6 29/9/7
f 65/2/2 2/1/1 66/10/8
f 66/10/8 2/1/1 3/11/9
f 66/10/8 3/11/9 67/12/10
f 67/12/10 3/11/9 4/13/11
f 67/12/10 4/13/11 69/14/12
f 69/14/12 4/13/11 68/15/13
f 69/14/12 68/15/13 59/16/14
f 59/16/14 68/15/13 58/17/15
f 58/17/15 68/15/13 70/18/16
f 58/17/15 70/18/16 57/19/17
f 57/19/17 70/18/16 71/20/18
f 57/19/17 71/20/18 56/21/19
f 56/21/19 71/20/18 73/22/20
f 56/21/19 73/22/20 55/23/21
f 55/23/21 73/22/20 72/24/22
f 55/23/21 72/24/22 54/25/23
f 54/25/23 72/24/22 74/26/24
f 54/25/23 74/26/24 53/27/25
f 53/27/25 74/26/24 75/28/26
f 53/27/25 75/28/26 52/29/27
f 52/29/27 75/28/26 77/30/28
f 52/29/27 77/30/28 51/31/29
f 51/31/29 77/30/28 76/32/30
f 51/31/29 76/32/30 50/33/31
f 50/33/31 76/32/30 78/34/32
f 50/33/31 78/34/32 49/35/33
f 49/35/33 78/34/32 79/36/34
f 49/35/33 79/36/34 48/37/35
f 48/37/35 79/36/34 81/38/36
f 48/37/35 81/38/36 47/39/37
f 47/39/37 81/38/36 80/40/38
f 47/39/37 80/40/38 46/41/39
f 46/41/39 80/40/38 82/42/40
f 46/41/39 82/42/40 45/43/41
f 45/43/41 82/42/40 83/44/42
f 45/43/41 83/44/42 44/45/43
f 44/45/43 83/44/42 85/46/44
f 44/45/43 85/46/44 43/47/45
f 43/47/45 85/46/44 84/48/46
f 43/47/45 84/48/46 42/49/47
f 42/49/47 84/48/46 86/50/48
f 42/49/47 86/50/48 41/51/49
f 41/51/49 86/50/48 87/52/50
f 41/51/49 87/52/50 40/53/51
f 40/53/51 87/52/50 89/54/52
f 40/53/51 89/54/52 39/55/53
f 39/55/53 89/54/52 88/56/54
f 39/55/53 88/56/54 38/57/55
f 38/57/55 88/56/54 90/58/56
f 38/57/55 90/58/56 37/59/57
f 37/59/57 90/58/56 91/60/58
f 37/59/57 91/60/58 36/61/59
f 36/61/59 91/60/58 93/62/60
f 36/61/59 93/62/60 35/63/61
f 35/63/61 93/62/60 92/64/62
f 35/63/61 92/64/62 34/65/63
f 34/65/63 92/64/62 94/66/64
f 34/65/63 94/66/64 33/67/65
f 33/67/65 94/66/64 95/68/66
f 33/67/65 95/68/66 32/69/67
f 32/69/67 95/68/66 97/70/68
f 32/69/67 97/70/68 31/71/69
f 31/71/69 97/70/68 96/72/70
f 31/71/69 96/72/70 30/73/71
f 30/73/71 96/72/70 98/74/72
f 30/73/71 98/74/72 29/9/7
f 29/9/7 98/74/72 99/7/5
f 4/13/11 5/75/73 68/15/13
f 68/15/13 5/75/73 70/18/16
f 5/75/73 6/76/74 70/18/16
f 70/18/16 6/76/74 71/20/18
f 6/76/74 7/77/75 71/20/18
f 71/20/18 7/77/75 73/22/20
f 73/22/20 7/77/75 72/24/22
f 72/24/22 7/77/75 8/78/76
f 72/24/22 8/78/76 74/26/24
f 74/26/24 8/78/76 9/79/77
f 74/26/24 9/79/77 75/28/26
f 75/28/26 9/79/77 10/80/78
f 75/28/26 10/80/78 77/30/28
f 77/30/28 10/80/78 76/32/30
f 10/80/78 11/81/79 76/32/30
f 76/32/30 11/81/79 78/34/32
f 11/81/79 12/82/80 78/34/32
f 78/34/32 12/82/80 79/36/34
f 12/82/80 13/83/81 79/36/34
f 79/36/34 13/83/81 81/38/36
f 81/38/36 13/83/81 80/40/38
f 80/40/38 13/83/81 14/84/82
f 80/40/38 14/84/82 82/42/40
f 82/42/40 14/84/82 15/85/83
f 82/42/40 15/85/83 83/44/42
f 83/44/42 15/85/83 16/86/84
f 83/44/42 16/86/84 85/46/44
f 85/46/44 16/86/84 84/48/46
f 16/86/84 17/87/85 84/48/46
f 84/48/46 17/87/85 86/50/48
f 17/87/85 18/88/86 86/50/48
f 86/50/48 18/88/86 87/52/50
f 18/88/86 19/89/87 87/52/50
f 87/52/50 19/89/87 89/54/52
f 89/54/52 19/89/87 88/56/54
f 88/56/54 19/89/87 20/90/88
f 88/56/54 20/90/88 90/58/56
f 90/58/56 20/90/88 21/91/89
f 90/58/56 21/91/89 91/60/58
f 91/60/58 21/91/89 22/92/90
f 91/60/58 22/92/90 93/62/60
f 93/62/60 22/92/90 92/64/62
f 22/92/90 23/93/91 92/64/62
f 92/64/62 23/93/91 94/66/64
f 23/93/91 24/94/92 94/66/64
f 94/66/64 24/94/92 95/68/66
f 24/94/92 25/95/93 95/68/66
f 95/68/66 25/95/93 97/70/68
f 97/70/68 25/95/93 96/72/70
f 96/72/70 25/95/93 26/96/94
f 96/72/70 26/96/94 98/74/72
f 98/74/72 26/96/94 27/97/95
f 98/74/72 27/97/95 99/7/5
f 99/7/5 27/97/95 1/5/3
f 59/16/14 60/98/96 69/14/12
f 69/14/12 60/98/96 67/12/10
f 60/98/96 61/99/97 67/12/10
f 67/12/10 61/99/97 66/10/8
f 61/99/97 62/100/98 66/10/8
f 66/10/8 62/100/98 65/2/2
f 62/100/98 63/101/99 65/2/2
f 65/2/2 63/101/99 64/4/4
f 63/101/99 28/102/6 64/4/4
f 1/103/100 27/104/101 2/105/102
f 2/105/102 27/104/101 3/106/103
f 3/106/103 27/104/101 26/107/104
f 3/106/103 26/107/104 4/108/105
f 4/108/105 26/107/104 25/109/106
f 4/108/105 25/109/106 5/110/107
f 5/110/107 25/109/106 24/111/108
f 5/110/107 24/111/108 6/112/109
f 6/112/109 24/111/108 7/113/110
f 7/113/110 24/111/108 8/114/111
f 8/114/111 24/111/108 9/115/112
f 9/115/112 24/111/108 10/116/113
f 10/116/113 24/111/108 11/117/114
f 11/117/114 24/111/108 12/118/115
f 12/118/115 24/111/108 13/119/116
f 13/119/116 24/111/108 14/120/117
f 14/120/117 24/111/108 15/121/118
f 15/121/118 24/111/108 16/122/119
f 16/122/119 24/111/108 17/123/120
f 17/123/120 24/111/108 18/124/121
f 18/124/121 24/111/108 23/125/122
f 18/124/121 23/125/122 19/126/123
f 19/126/123 23/125/122 20/127/124
f 20/127/124 23/125/122 22/128/125
f 20/127/124 22/128/125 21/129/126
f 63/130/127 47/131/128 28/132/129
f 28/132/129 47/131/128 46/133/130
f 28/132/129 46/133/130 29/134/131
f 29/134/131 46/133/130 45/135/132
f 29/134/131 45/135/132 30/136/133
f 30/136/133 45/135/132 44/137/134
f 30/136/133 44/137/134 31/138/135
f 31/138/135 44/137/134 43/139/136
f 31/138/135 43/139/136 32/140/137
f 32/140/137 43/139/136 42/141/138
f 32/140/137 42/141/138 33/142/139
f 33/142/139 42/141/138 41/143/140
f 33/142/139 41/143/140 34/144/141
f 34/144/141 41/143/140 40/145/142
f 34/144/141 40/145/142 35/146/143
f 35/146/143 40/145/142 39/147/144
f 35/146/143 39/147/144 36/148/145
f 36/148/145 39/147/144 38/149/146
f 36/148/145 38/149/146 37/150/147
f 47/131/128 63/130/127 48/151/148
f 48/151/148 63/130/127 62/152/149
f 48/151/148 62/152/149 49/153/150
f 49/153/150 62/152/149 61/154/151
f 49/153/150 61/154/151 50/155/152
f 50/155/152 61/154/151 60/156/153
f 50/155/152 60/156/153 51/157/154
f 51/157/154 60/156/153 59/158/155
f 51/157/154 59/158/155 52/159/156
f 52/159/156 59/158/155 58/160/157
f 52/159/156 58/160/157 53/161/158
f 53/161/158 58/160/157 57/162/159
f 53/161/158 57/162/159 54/163/160
f 54/163/160 57/162/159 56/164/161
f 54/163/160 56/164/161 55/165/162
# 99 vertices
# 165 texture params
# 162 normals
# 194 facets

# 1 groups
